<?xml version="1.0" encoding="utf-8"?>
<!-- Generator: Adobe Illustrator 23.0.5, SVG Export Plug-In . SVG Version: 6.00 Build 0)  -->
<svg version="1.1" id="Layer_2" xmlns="http://www.w3.org/2000/svg" xmlns:xlink="http://www.w3.org/1999/xlink" x="0px" y="0px"
	 viewBox="0 0 1200 1200" style="enable-background:new 0 0 1200 1200;" xml:space="preserve">
<style type="text/css">
	.st0{fill:url(#SVGID_1_);}
	.st1{fill:#B70B0B;}
	.st2{fill:url(#SVGID_2_);}
	.st3{fill:url(#SVGID_3_);}
	.st4{fill:#49030C;}
	.st5{font-family:'ArialRoundedMTBold';}
	.st6{font-size:45px;}
	.st7{fill:#932F3B;}
</style>
<g>
	<g>
		<linearGradient id="SVGID_1_" gradientUnits="userSpaceOnUse" x1="122.613" y1="600.5" x2="240.3567" y2="600.5">
			<stop  offset="6.766293e-07" style="stop-color:#ED1C24"/>
			<stop  offset="0.7648" style="stop-color:#C1011A"/>
			<stop  offset="1" style="stop-color:#BF001A"/>
		</linearGradient>
		<path class="st0" d="M164.04,675.99c0,0,53.37-13.63,43.65-46.11c-8.44-28.2-43.17-26.6-62.94-39.52
			c-14.31-9.35-24.4-17.57-21.7-28.03c4.18-16.21,33.82-32.59,61.51-37.32c0,0-26.35,14.86-2.7,29.72
			c23.64,14.86,73.63,43.23,54.04,81.74C216.31,674.98,164.04,675.99,164.04,675.99z"/>
		<path class="st1" d="M194.85,637.38c1.03,7.14-2.12,14.5-7.26,19.56c-5.14,5.07-12.06,8.03-19.12,9.52
			c-20.9,4.4-44-4.42-56.64-21.65s-14.13-41.91-3.66-60.52c-1.6,10.79-1.37,22.24,3.39,32.06c4.75,9.82,14.8,17.59,25.71,17.2
			c14.5-0.52,26.7-14.53,41.07-12.57C186.58,622.12,193.65,629.15,194.85,637.38z"/>
		<linearGradient id="SVGID_2_" gradientUnits="userSpaceOnUse" x1="101.1879" y1="637.4629" x2="155.5403" y2="637.4629">
			<stop  offset="6.766293e-07" style="stop-color:#ED1C24"/>
			<stop  offset="1" style="stop-color:#BF001A"/>
		</linearGradient>
		<path class="st2" d="M101.3,608.61c3.98,16.43,11.41,24.36,16.49,28.34c13.41,10.5,25.25,13.72,25.25,13.72
			c5.09,1.38,11.15,2.28,12.3,6.11c0.67,2.25-0.42,5.3-2.44,7.23c-2.29,2.19-5.09,2.29-5.74,2.3c-4.24-0.68-20.8-3.87-33.39-19.01
			C100.22,631,101.03,612.56,101.3,608.61z"/>
		<linearGradient id="SVGID_3_" gradientUnits="userSpaceOnUse" x1="181.4849" y1="536.5417" x2="204.5462" y2="536.5417">
			<stop  offset="6.766293e-07" style="stop-color:#ED1C24"/>
			<stop  offset="1" style="stop-color:#BF001A"/>
		</linearGradient>
		<circle class="st3" cx="193.02" cy="536.54" r="11.53"/>
	</g>
	<text transform="matrix(1 0 0 1 256.6971 619.1147)" class="st4 st5 st6">SAMURAI GLOBAL (PRIVATE) LIMITED</text>
	<g>
		<g>
			<path class="st7" d="M259.04,636.12h11.09v2.75h-7.82v4.72h6.63v2.75h-6.63v5.45h8.1v2.75h-11.37V636.12z"/>
			<path class="st7" d="M288.44,647.33l-4.09-6.63h3.49l1.53,2.63c0.4,0.77,0.84,1.57,1.26,2.33h0.11c0.35-0.77,0.74-1.57,1.09-2.33
				l1.31-2.63h3.37l-4.09,6.99l4.38,6.85h-3.49l-1.69-2.74c-0.46-0.81-0.92-1.66-1.4-2.45h-0.11c-0.41,0.79-0.82,1.62-1.23,2.45
				l-1.46,2.74h-3.37L288.44,647.33z"/>
			<path class="st7" d="M311.08,640.71h2.66l0.25,1.48h0.09c1.17-1,2.65-1.81,4.17-1.81c3.46,0,5.44,2.77,5.44,7.04
				c0,4.73-2.83,7.47-5.9,7.47c-1.23,0-2.43-0.55-3.56-1.52l0.1,2.3v4.36h-3.24V640.71z M320.35,647.45c0-2.76-0.9-4.39-3.01-4.39
				c-1,0-1.95,0.51-3.02,1.55v6.45c0.99,0.84,1.97,1.15,2.77,1.15C318.94,652.2,320.35,650.58,320.35,647.45z"/>
			<path class="st7" d="M337.86,647.64c0-4.5,3.12-7.27,6.38-7.27c3.74,0,5.71,2.7,5.71,6.57c0,0.62-0.07,1.24-0.14,1.58h-8.78
				c0.27,2.46,1.85,3.85,4.08,3.85c1.18,0,2.2-0.37,3.21-1l1.1,2.02c-1.32,0.89-2.99,1.5-4.74,1.5
				C340.85,654.88,337.86,652.2,337.86,647.64z M347.14,646.31c0-2.13-0.95-3.42-2.84-3.42c-1.61,0-3.03,1.21-3.31,3.42H347.14z"/>
			<path class="st7" d="M364.86,640.71h2.66l0.25,2.47h0.09c0.99-1.8,2.45-2.81,3.93-2.81c0.7,0,1.15,0.09,1.57,0.28l-0.56,2.82
				c-0.48-0.14-0.85-0.23-1.42-0.23c-1.1,0-2.43,0.75-3.27,2.86v8.44h-3.24V640.71z"/>
			<path class="st7" d="M387.65,649.88v-6.59h-1.97v-2.43l2.14-0.15l0.38-3.77h2.69v3.77h3.53v2.58h-3.53v6.59
				c0,1.63,0.63,2.43,1.96,2.43c0.47,0,1.04-0.16,1.44-0.32l0.55,2.39c-0.75,0.25-1.72,0.51-2.83,0.51
				C388.84,654.88,387.65,652.86,387.65,649.88z"/>
			<path class="st7" d="M425.9,645.39c0-6.03,3.82-9.61,8.72-9.61c2.61,0,4.41,1.15,5.57,2.33l-1.75,2.11
				c-0.92-0.9-2.01-1.6-3.72-1.6c-3.27,0-5.46,2.54-5.46,6.67c0,4.2,1.95,6.75,5.64,6.75c1.03,0,2.04-0.29,2.63-0.81v-3.98h-3.47
				v-2.68h6.4v8.12c-1.23,1.24-3.36,2.19-5.88,2.19C429.6,654.88,425.9,651.49,425.9,645.39z"/>
			<path class="st7" d="M455.92,649.38v-8.68h3.24v8.26c0,2.28,0.65,3.13,2.15,3.13c1.22,0,2.02-0.56,3.06-1.92v-9.48h3.25v13.84
				h-2.66l-0.25-2.04h-0.09c-1.22,1.44-2.56,2.38-4.45,2.38C457.22,654.88,455.92,652.88,455.92,649.38z"/>
			<path class="st7" d="M483.18,636.45c0-1.09,0.86-1.84,2.01-1.84c1.15,0,2.01,0.74,2.01,1.84c0,1.07-0.86,1.84-2.01,1.84
				C484.03,638.29,483.18,637.52,483.18,636.45z M483.55,640.71h3.24v13.84h-3.24V640.71z"/>
			<path class="st7" d="M501.89,647.64c0-4.51,2.83-7.27,5.86-7.27c1.57,0,2.56,0.59,3.63,1.52l-0.12-2.23v-5.01h3.25v19.9h-2.66
				l-0.25-1.5h-0.09c-1.03,1.03-2.44,1.84-3.93,1.84C504.12,654.88,501.89,652.2,501.89,647.64z M511.25,650.64v-6.44
				c-0.95-0.84-1.88-1.15-2.82-1.15c-1.76,0-3.21,1.67-3.21,4.55c0,3.01,1.15,4.6,3.14,4.6
				C509.44,652.2,510.34,651.73,511.25,650.64z"/>
			<path class="st7" d="M529.69,650.83c0-2.96,2.46-4.51,8.13-5.12c-0.04-1.49-0.64-2.73-2.51-2.73c-1.37,0-2.67,0.62-3.89,1.36
				l-1.19-2.16c1.52-0.96,3.48-1.81,5.68-1.81c3.46,0,5.16,2.13,5.16,5.98v8.19h-2.66l-0.25-1.53h-0.09
				c-1.24,1.06-2.66,1.87-4.29,1.87C531.35,654.88,529.69,653.24,529.69,650.83z M537.82,650.84v-3.11c-3.75,0.47-5,1.45-5,2.85
				c0,1.22,0.83,1.76,1.99,1.76C535.94,652.33,536.8,651.78,537.82,650.84z"/>
			<path class="st7" d="M556.77,640.71h2.66l0.25,1.87h0.09c1.24-1.21,2.65-2.21,4.54-2.21c2.96,0,4.26,2.01,4.26,5.5v8.68h-3.24
				v-8.26c0-2.28-0.65-3.13-2.15-3.13c-1.22,0-2.02,0.6-3.15,1.72v9.67h-3.24V640.71z"/>
			<path class="st7" d="M583.44,647.64c0-4.61,3.26-7.27,6.94-7.27c1.76,0,3.04,0.68,4.04,1.55l-1.58,2.11
				c-0.73-0.64-1.43-1.01-2.3-1.01c-2.23,0-3.77,1.85-3.77,4.62s1.52,4.6,3.67,4.6c1.08,0,2.07-0.53,2.86-1.19l1.32,2.14
				c-1.3,1.15-2.94,1.7-4.52,1.7C586.34,654.88,583.44,652.22,583.44,647.64z"/>
			<path class="st7" d="M608.26,647.64c0-4.5,3.12-7.27,6.38-7.27c3.74,0,5.71,2.7,5.71,6.57c0,0.62-0.07,1.24-0.14,1.58h-8.78
				c0.27,2.46,1.85,3.85,4.08,3.85c1.18,0,2.2-0.37,3.21-1l1.1,2.02c-1.32,0.89-2.99,1.5-4.74,1.5
				C611.26,654.88,608.26,652.2,608.26,647.64z M617.54,646.31c0-2.13-0.95-3.42-2.84-3.42c-1.61,0-3.03,1.21-3.31,3.42H617.54z"/>
			<path class="st7" d="M651.39,640.85l2.03-0.15h5.78v2.58h-7.81V640.85z M653.25,639.28c0-2.87,1.32-4.97,4.58-4.97
				c1,0,1.92,0.24,2.54,0.48l-0.62,2.42c-0.5-0.21-1.03-0.33-1.5-0.33c-1.15,0-1.76,0.73-1.76,2.33v15.32h-3.25V639.28z"/>
			<path class="st7" d="M672.52,647.64c0-4.61,3.13-7.27,6.58-7.27c3.45,0,6.58,2.66,6.58,7.27c0,4.59-3.13,7.25-6.58,7.25
				C675.65,654.88,672.52,652.22,672.52,647.64z M682.35,647.64c0-2.77-1.22-4.62-3.25-4.62c-2.03,0-3.25,1.85-3.25,4.62
				s1.22,4.6,3.25,4.6C681.13,652.23,682.35,650.41,682.35,647.64z"/>
			<path class="st7" d="M700.71,640.71h2.66l0.25,2.47h0.09c0.99-1.8,2.45-2.81,3.93-2.81c0.7,0,1.15,0.09,1.57,0.28l-0.56,2.82
				c-0.48-0.14-0.85-0.23-1.42-0.23c-1.1,0-2.43,0.75-3.27,2.86v8.44h-3.25V640.71z"/>
			<path class="st7" d="M740.74,636.12h3.27v15.67h7.65v2.75h-10.92V636.12z"/>
			<path class="st7" d="M765.66,650.83c0-2.96,2.46-4.51,8.13-5.12c-0.04-1.49-0.64-2.73-2.51-2.73c-1.37,0-2.67,0.62-3.89,1.36
				l-1.19-2.16c1.52-0.96,3.48-1.81,5.68-1.81c3.46,0,5.16,2.13,5.16,5.98v8.19h-2.66l-0.25-1.53h-0.09
				c-1.24,1.06-2.66,1.87-4.29,1.87C767.33,654.88,765.66,653.24,765.66,650.83z M773.8,650.84v-3.11c-3.75,0.47-5,1.45-5,2.85
				c0,1.22,0.83,1.76,1.99,1.76C771.91,652.33,772.77,651.78,773.8,650.84z"/>
			<path class="st7" d="M791.37,652.95l1.51-2.06c1.23,0.96,2.42,1.54,3.82,1.54c1.51,0,2.22-0.71,2.22-1.66
				c0-1.16-1.5-1.68-2.97-2.24c-1.81-0.68-3.89-1.72-3.89-4.03c0-2.4,1.94-4.13,5.04-4.13c1.93,0,3.47,0.78,4.6,1.66l-1.49,1.99
				c-0.97-0.71-1.94-1.21-3.03-1.21c-1.39,0-2.05,0.66-2.05,1.53c0,1.09,1.4,1.51,2.9,2.06c1.87,0.7,3.97,1.6,3.97,4.18
				c0,2.38-1.88,4.29-5.37,4.29C794.72,654.88,792.72,654.07,791.37,652.95z"/>
			<path class="st7" d="M817.18,649.88v-6.59h-1.97v-2.43l2.14-0.15l0.38-3.77h2.69v3.77h3.53v2.58h-3.53v6.59
				c0,1.63,0.63,2.43,1.96,2.43c0.47,0,1.04-0.16,1.44-0.32l0.55,2.39c-0.75,0.25-1.72,0.51-2.83,0.51
				C818.36,654.88,817.18,652.86,817.18,649.88z"/>
			<path class="st7" d="M838.3,636.45c0-1.09,0.86-1.84,2-1.84s2.01,0.74,2.01,1.84c0,1.07-0.86,1.84-2.01,1.84
				S838.3,637.52,838.3,636.45z M838.67,640.71h3.25v13.84h-3.25V640.71z"/>
			<path class="st7" d="M857.85,640.71h2.66l0.25,1.87h0.09c1.24-1.21,2.65-2.21,4.54-2.21c2.96,0,4.26,2.01,4.26,5.5v8.68h-3.25
				v-8.26c0-2.28-0.65-3.13-2.15-3.13c-1.22,0-2.02,0.6-3.16,1.72v9.67h-3.25V640.71z"/>
			<path class="st7" d="M884.49,657.06c0-1.17,0.72-2.19,1.99-2.95v-0.11c-0.71-0.46-1.25-1.19-1.25-2.31
				c0-1.07,0.73-2.02,1.53-2.58v-0.11c-0.95-0.7-1.83-2.02-1.83-3.65c0-3.18,2.57-4.97,5.46-4.97c0.77,0,1.49,0.14,2.05,0.34h4.95
				v2.41h-2.52c0.45,0.52,0.79,1.38,0.79,2.32c0,3.08-2.33,4.72-5.26,4.72c-0.59,0-1.25-0.12-1.87-0.37
				c-0.42,0.36-0.68,0.7-0.68,1.32c0,0.78,0.56,1.25,2.24,1.25h2.46c3.31,0,5.06,1.02,5.06,3.41c0,2.73-2.86,4.88-7.38,4.88
				C886.94,660.66,884.49,659.48,884.49,657.06z M894.49,656.31c0-1.07-0.86-1.39-2.44-1.39h-1.9c-0.74,0-1.34-0.06-1.87-0.19
				c-0.74,0.56-1.07,1.18-1.07,1.83c0,1.26,1.35,1.99,3.53,1.99C892.97,658.55,894.49,657.51,894.49,656.31z M892.8,645.34
				c0-1.74-1.05-2.73-2.4-2.73c-1.35,0-2.4,0.98-2.4,2.73c0,1.76,1.07,2.78,2.4,2.78C891.73,648.12,892.8,647.1,892.8,645.34z"/>
			<path class="st7" d="M928.35,652.18l1.9-2.24c1.32,1.26,3.09,2.1,4.8,2.1c2.07,0,3.21-0.94,3.21-2.38c0-1.52-1.19-2-2.86-2.71
				l-2.52-1.09c-1.81-0.75-3.72-2.19-3.72-4.88c0-2.93,2.59-5.19,6.19-5.19c2.15,0,4.24,0.89,5.68,2.35l-1.68,2.07
				c-1.17-1-2.42-1.58-4-1.58c-1.75,0-2.88,0.82-2.88,2.16c0,1.45,1.4,1.98,2.93,2.61l2.48,1.04c2.19,0.91,3.72,2.3,3.72,4.97
				c0,2.99-2.48,5.48-6.61,5.48C932.49,654.88,930.09,653.9,928.35,652.18z"/>
			<path class="st7" d="M956.33,649.38v-8.68h3.25v8.26c0,2.28,0.65,3.13,2.15,3.13c1.22,0,2.02-0.56,3.06-1.92v-9.48h3.25v13.84
				h-2.66l-0.25-2.04h-0.09c-1.22,1.44-2.56,2.38-4.45,2.38C957.63,654.88,956.33,652.88,956.33,649.38z"/>
			<path class="st7" d="M983.04,647.64c0-4.61,3.26-7.27,6.94-7.27c1.76,0,3.04,0.68,4.04,1.55l-1.58,2.11
				c-0.73-0.64-1.43-1.01-2.3-1.01c-2.23,0-3.77,1.85-3.77,4.62s1.52,4.6,3.67,4.6c1.08,0,2.07-0.53,2.86-1.19l1.32,2.14
				c-1.3,1.15-2.94,1.7-4.52,1.7C985.94,654.88,983.04,652.22,983.04,647.64z"/>
			<path class="st7" d="M1007.86,647.64c0-4.61,3.26-7.27,6.94-7.27c1.76,0,3.04,0.68,4.04,1.55l-1.58,2.11
				c-0.73-0.64-1.43-1.01-2.3-1.01c-2.23,0-3.77,1.85-3.77,4.62s1.52,4.6,3.67,4.6c1.08,0,2.07-0.53,2.86-1.19l1.32,2.14
				c-1.3,1.15-2.94,1.7-4.52,1.7C1010.76,654.88,1007.86,652.22,1007.86,647.64z"/>
			<path class="st7" d="M1032.68,647.64c0-4.5,3.12-7.27,6.38-7.27c3.74,0,5.71,2.7,5.71,6.57c0,0.62-0.07,1.24-0.14,1.58h-8.78
				c0.27,2.46,1.85,3.85,4.08,3.85c1.18,0,2.2-0.37,3.21-1l1.1,2.02c-1.32,0.89-2.99,1.5-4.74,1.5
				C1035.68,654.88,1032.68,652.2,1032.68,647.64z M1041.97,646.31c0-2.13-0.95-3.42-2.84-3.42c-1.61,0-3.03,1.21-3.31,3.42H1041.97
				z"/>
			<path class="st7" d="M1058.31,652.95l1.51-2.06c1.23,0.96,2.42,1.54,3.82,1.54c1.51,0,2.22-0.71,2.22-1.66
				c0-1.16-1.5-1.68-2.97-2.24c-1.81-0.68-3.89-1.72-3.89-4.03c0-2.4,1.94-4.13,5.04-4.13c1.93,0,3.47,0.78,4.6,1.66l-1.49,1.99
				c-0.97-0.71-1.94-1.21-3.03-1.21c-1.39,0-2.05,0.66-2.05,1.53c0,1.09,1.4,1.51,2.9,2.06c1.87,0.7,3.97,1.6,3.97,4.18
				c0,2.38-1.88,4.29-5.37,4.29C1061.66,654.88,1059.66,654.07,1058.31,652.95z"/>
			<path class="st7" d="M1082.26,652.95l1.51-2.06c1.23,0.96,2.42,1.54,3.82,1.54c1.51,0,2.22-0.71,2.22-1.66
				c0-1.16-1.5-1.68-2.97-2.24c-1.81-0.68-3.89-1.72-3.89-4.03c0-2.4,1.94-4.13,5.04-4.13c1.93,0,3.47,0.78,4.6,1.66l-1.49,1.99
				c-0.97-0.71-1.94-1.21-3.03-1.21c-1.39,0-2.05,0.66-2.05,1.53c0,1.09,1.4,1.51,2.9,2.06c1.87,0.7,3.97,1.6,3.97,4.18
				c0,2.38-1.88,4.29-5.37,4.29C1085.6,654.88,1083.61,654.07,1082.26,652.95z"/>
		</g>
	</g>
</g>
</svg>
